<svg width="295" height="73" viewBox="0 0 295 73" fill="none" xmlns="http://www.w3.org/2000/svg">
<g filter="url(#filter0_d_10_56)">
<rect x="4" width="287" height="65" rx="10.65" fill="url(#paint0_linear_10_56)"/>
</g>
<path d="M74.8057 39V28.5H75.8557V37.95H80.6782V39H74.8057ZM82.56 39V28.5H83.61V39H82.56ZM85.6309 39V28.5H89.1784C89.6884 28.5 90.1509 28.605 90.5659 28.815C90.9859 29.02 91.3184 29.3225 91.5634 29.7225C91.8134 30.1175 91.9384 30.5975 91.9384 31.1625C91.9384 31.4825 91.8809 31.7875 91.7659 32.0775C91.6509 32.3675 91.5009 32.615 91.3159 32.82C91.1309 33.02 90.9309 33.15 90.7159 33.21C91.0259 33.29 91.2934 33.43 91.5184 33.63C91.7434 33.825 91.9284 34.0575 92.0734 34.3275C92.2184 34.5925 92.3234 34.8725 92.3884 35.1675C92.4584 35.4625 92.4934 35.7525 92.4934 36.0375C92.4934 36.6275 92.3634 37.145 92.1034 37.59C91.8484 38.035 91.5059 38.3825 91.0759 38.6325C90.6459 38.8775 90.1684 39 89.6434 39H85.6309ZM86.6809 38.0625H89.5609C89.9259 38.0625 90.2559 37.9675 90.5509 37.7775C90.8509 37.5875 91.0884 37.3275 91.2634 36.9975C91.4434 36.6675 91.5334 36.295 91.5334 35.88C91.5334 35.51 91.4434 35.1625 91.2634 34.8375C91.0884 34.5075 90.8509 34.2425 90.5509 34.0425C90.2559 33.8375 89.9259 33.735 89.5609 33.735H86.6809V38.0625ZM86.6809 32.8125H89.0884C89.5834 32.8125 90.0059 32.67 90.3559 32.385C90.7109 32.095 90.8884 31.685 90.8884 31.155C90.8884 30.575 90.7109 30.145 90.3559 29.865C90.0059 29.58 89.5834 29.4375 89.0884 29.4375H86.6809V32.8125ZM93.8634 39V28.5H100.253V29.55H94.9134V32.85H99.3309V33.9H94.9134V37.95H100.253V39H93.8634ZM102.008 39V28.5H105.57C106.13 28.5 106.635 28.6375 107.085 28.9125C107.535 29.1825 107.893 29.55 108.158 30.015C108.423 30.475 108.555 30.9925 108.555 31.5675C108.555 32.0825 108.45 32.55 108.24 32.97C108.03 33.39 107.743 33.7375 107.378 34.0125C107.018 34.2875 106.61 34.47 106.155 34.56L108.72 39H107.505L104.978 34.6425H103.058V39H102.008ZM103.058 33.5925H105.48C105.85 33.5925 106.188 33.5025 106.493 33.3225C106.803 33.1375 107.048 32.89 107.228 32.58C107.413 32.265 107.505 31.91 107.505 31.515C107.505 31.12 107.413 30.7675 107.228 30.4575C107.048 30.1425 106.803 29.895 106.493 29.715C106.188 29.53 105.85 29.4375 105.48 29.4375H103.058V33.5925ZM110.577 39V28.5H114.05C114.775 28.5 115.455 28.6375 116.09 28.9125C116.725 29.1825 117.282 29.56 117.762 30.045C118.242 30.525 118.617 31.0825 118.887 31.7175C119.162 32.3475 119.3 33.025 119.3 33.75C119.3 34.475 119.162 35.155 118.887 35.79C118.617 36.42 118.242 36.9775 117.762 37.4625C117.282 37.9425 116.725 38.32 116.09 38.595C115.455 38.865 114.775 39 114.05 39H110.577ZM111.627 37.95H114.05C114.63 37.95 115.172 37.8425 115.677 37.6275C116.187 37.4075 116.635 37.105 117.02 36.72C117.405 36.335 117.705 35.89 117.92 35.385C118.14 34.875 118.25 34.33 118.25 33.75C118.25 33.17 118.14 32.6275 117.92 32.1225C117.705 31.6125 117.402 31.165 117.012 30.78C116.627 30.395 116.182 30.095 115.677 29.88C115.172 29.66 114.63 29.55 114.05 29.55H111.627V37.95ZM123.572 28.5H124.877L128.702 39H127.585L126.767 36.75H121.69L120.872 39H119.755L123.572 28.5ZM122.072 35.7H126.377L124.225 29.79L122.072 35.7ZM130.104 39V28.5H133.576C134.301 28.5 134.981 28.6375 135.616 28.9125C136.251 29.1825 136.809 29.56 137.289 30.045C137.769 30.525 138.144 31.0825 138.414 31.7175C138.689 32.3475 138.826 33.025 138.826 33.75C138.826 34.475 138.689 35.155 138.414 35.79C138.144 36.42 137.769 36.9775 137.289 37.4625C136.809 37.9425 136.251 38.32 135.616 38.595C134.981 38.865 134.301 39 133.576 39H130.104ZM131.154 37.95H133.576C134.156 37.95 134.699 37.8425 135.204 37.6275C135.714 37.4075 136.161 37.105 136.546 36.72C136.931 36.335 137.231 35.89 137.446 35.385C137.666 34.875 137.776 34.33 137.776 33.75C137.776 33.17 137.666 32.6275 137.446 32.1225C137.231 31.6125 136.929 31.165 136.539 30.78C136.154 30.395 135.709 30.095 135.204 29.88C134.699 29.66 134.156 29.55 133.576 29.55H131.154V37.95ZM140.211 39V28.5H146.601V29.55H141.261V32.85H145.679V33.9H141.261V37.95H146.601V39H140.211ZM151.857 39V28.5H155.217C155.777 28.5 156.282 28.6375 156.732 28.9125C157.182 29.1825 157.539 29.55 157.804 30.015C158.074 30.475 158.209 30.9925 158.209 31.5675C158.209 32.1475 158.072 32.67 157.797 33.135C157.527 33.6 157.164 33.9675 156.709 34.2375C156.259 34.5075 155.762 34.6425 155.217 34.6425H152.907V39H151.857ZM152.907 33.5925H155.134C155.504 33.5925 155.842 33.5025 156.147 33.3225C156.457 33.1375 156.702 32.89 156.882 32.58C157.067 32.265 157.159 31.91 157.159 31.515C157.159 31.12 157.067 30.7675 156.882 30.4575C156.702 30.1425 156.457 29.895 156.147 29.715C155.842 29.53 155.504 29.4375 155.134 29.4375H152.907V33.5925ZM161.702 28.5H163.007L166.832 39H165.715L164.897 36.75H159.82L159.002 39H157.885L161.702 28.5ZM160.202 35.7H164.507L162.355 29.79L160.202 35.7ZM168.233 39V28.5H171.796C172.356 28.5 172.861 28.6375 173.311 28.9125C173.761 29.1825 174.118 29.55 174.383 30.015C174.648 30.475 174.781 30.9925 174.781 31.5675C174.781 32.0825 174.676 32.55 174.466 32.97C174.256 33.39 173.968 33.7375 173.603 34.0125C173.243 34.2875 172.836 34.47 172.381 34.56L174.946 39H173.731L171.203 34.6425H169.283V39H168.233ZM169.283 33.5925H171.706C172.076 33.5925 172.413 33.5025 172.718 33.3225C173.028 33.1375 173.273 32.89 173.453 32.58C173.638 32.265 173.731 31.91 173.731 31.515C173.731 31.12 173.638 30.7675 173.453 30.4575C173.273 30.1425 173.028 29.895 172.718 29.715C172.413 29.53 172.076 29.4375 171.706 29.4375H169.283V33.5925ZM179.939 28.5H181.244L185.069 39H183.952L183.134 36.75H178.057L177.239 39H176.122L179.939 28.5ZM178.439 35.7H182.744L180.592 29.79L178.439 35.7ZM190.177 39V28.5H196.567V29.55H191.227V32.85H195.644V33.9H191.227V37.95H196.567V39H190.177ZM197.769 39L201.616 33.72L197.814 28.5H199.111L202.261 32.835L205.419 28.5H206.716L202.921 33.72L206.761 39H205.456L202.261 34.62L199.081 39H197.769ZM208.399 39V28.5H211.759C212.319 28.5 212.824 28.6375 213.274 28.9125C213.724 29.1825 214.082 29.55 214.347 30.015C214.617 30.475 214.752 30.9925 214.752 31.5675C214.752 32.1475 214.614 32.67 214.339 33.135C214.069 33.6 213.707 33.9675 213.252 34.2375C212.802 34.5075 212.304 34.6425 211.759 34.6425H209.449V39H208.399ZM209.449 33.5925H211.677C212.047 33.5925 212.384 33.5025 212.689 33.3225C212.999 33.1375 213.244 32.89 213.424 32.58C213.609 32.265 213.702 31.91 213.702 31.515C213.702 31.12 213.609 30.7675 213.424 30.4575C213.244 30.1425 212.999 29.895 212.689 29.715C212.384 29.53 212.047 29.4375 211.677 29.4375H209.449V33.5925ZM216.28 39V28.5H217.33V37.95H222.153V39H216.28ZM227.864 39.195C227.154 39.195 226.487 39.055 225.862 38.775C225.237 38.49 224.687 38.0975 224.212 37.5975C223.737 37.0975 223.364 36.52 223.094 35.865C222.824 35.205 222.689 34.5 222.689 33.75C222.689 33 222.824 32.2975 223.094 31.6425C223.364 30.9825 223.737 30.4025 224.212 29.9025C224.687 29.4025 225.237 29.0125 225.862 28.7325C226.487 28.4475 227.154 28.305 227.864 28.305C228.579 28.305 229.249 28.4475 229.874 28.7325C230.499 29.0125 231.049 29.4025 231.524 29.9025C231.999 30.4025 232.369 30.9825 232.634 31.6425C232.904 32.2975 233.039 33 233.039 33.75C233.039 34.5 232.904 35.205 232.634 35.865C232.369 36.52 231.999 37.0975 231.524 37.5975C231.049 38.0975 230.499 38.49 229.874 38.775C229.249 39.055 228.579 39.195 227.864 39.195ZM227.864 38.145C228.439 38.145 228.974 38.03 229.469 37.8C229.969 37.565 230.407 37.245 230.782 36.84C231.162 36.435 231.457 35.9675 231.667 35.4375C231.882 34.9075 231.989 34.345 231.989 33.75C231.989 33.15 231.882 32.585 231.667 32.055C231.452 31.52 231.154 31.0525 230.774 30.6525C230.399 30.2475 229.962 29.93 229.462 29.7C228.967 29.47 228.434 29.355 227.864 29.355C227.289 29.355 226.752 29.4725 226.252 29.7075C225.757 29.9375 225.319 30.255 224.939 30.66C224.564 31.065 224.269 31.5325 224.054 32.0625C223.844 32.5925 223.739 33.155 223.739 33.75C223.739 34.355 223.847 34.9225 224.062 35.4525C224.277 35.9825 224.572 36.45 224.947 36.855C225.327 37.26 225.764 37.5775 226.259 37.8075C226.759 38.0325 227.294 38.145 227.864 38.145ZM234.562 39V28.5H238.124C238.684 28.5 239.189 28.6375 239.639 28.9125C240.089 29.1825 240.447 29.55 240.712 30.015C240.977 30.475 241.109 30.9925 241.109 31.5675C241.109 32.0825 241.004 32.55 240.794 32.97C240.584 33.39 240.297 33.7375 239.932 34.0125C239.572 34.2875 239.164 34.47 238.709 34.56L241.274 39H240.059L237.532 34.6425H235.612V39H234.562ZM235.612 33.5925H238.034C238.404 33.5925 238.742 33.5025 239.047 33.3225C239.357 33.1375 239.602 32.89 239.782 32.58C239.967 32.265 240.059 31.91 240.059 31.515C240.059 31.12 239.967 30.7675 239.782 30.4575C239.602 30.1425 239.357 29.895 239.047 29.715C238.742 29.53 238.404 29.4375 238.034 29.4375H235.612V33.5925ZM246.268 28.5H247.573L251.398 39H250.28L249.463 36.75H244.385L243.568 39H242.45L246.268 28.5ZM244.768 35.7H249.073L246.92 29.79L244.768 35.7ZM252.799 39V28.5H256.361C256.921 28.5 257.426 28.6375 257.876 28.9125C258.326 29.1825 258.684 29.55 258.949 30.015C259.214 30.475 259.346 30.9925 259.346 31.5675C259.346 32.0825 259.241 32.55 259.031 32.97C258.821 33.39 258.534 33.7375 258.169 34.0125C257.809 34.2875 257.401 34.47 256.946 34.56L259.511 39H258.296L255.769 34.6425H253.849V39H252.799ZM253.849 33.5925H256.271C256.641 33.5925 256.979 33.5025 257.284 33.3225C257.594 33.1375 257.839 32.89 258.019 32.58C258.204 32.265 258.296 31.91 258.296 31.515C258.296 31.12 258.204 30.7675 258.019 30.4575C257.839 30.1425 257.594 29.895 257.284 29.715C256.979 29.53 256.641 29.4375 256.271 29.4375H253.849V33.5925Z" fill="white"/>
<path d="M58.5223 32.1549L65.2769 24.6611C65.5504 24.3471 65.2769 23.8694 64.8667 23.9513L59.3973 25.1115C59.2605 25.1388 59.1649 24.975 59.2605 24.8795L63.0072 20.7299C63.2806 20.4159 63.0072 19.9382 62.597 20.0201L52.711 22.1222C52.4922 22.1631 52.2871 22.0403 52.2188 21.8355L49.1148 12.2669C48.9918 11.871 48.4312 11.871 48.2944 12.2669L46.5715 17.5767C46.5306 17.7132 46.3391 17.7132 46.298 17.5767L44.5752 12.2669C44.4522 11.871 43.8916 11.871 43.7548 12.2669L40.6509 21.8628C40.5826 22.0676 40.3638 22.1904 40.1587 22.1495L30.2727 20.0337C29.8625 19.9518 29.589 20.4296 29.8625 20.7435L33.6091 24.8931C33.7048 25.0023 33.6091 25.1525 33.4723 25.1252L28.0029 23.9649C27.5927 23.883 27.3192 24.3608 27.5927 24.6747L34.3611 32.1686C34.5115 32.3324 34.5115 32.5781 34.3611 32.7419L27.5927 40.2221C27.3192 40.536 27.5927 41.0138 28.0029 40.9319L33.4723 39.7716C33.6091 39.7443 33.7048 39.9081 33.6091 40.0037L29.8625 44.1533C29.589 44.4672 29.8625 44.945 30.2727 44.8631L40.1587 42.761C40.3774 42.72 40.5826 42.8429 40.6509 43.0476L43.7685 52.6436C43.8916 53.0394 44.4522 53.0394 44.5889 52.6436L46.3118 47.3337C46.3528 47.1972 46.5442 47.1972 46.5853 47.3337L48.3081 52.6436C48.4312 53.0394 48.9918 53.0394 49.1285 52.6436L52.2461 43.0476C52.3144 42.8429 52.5332 42.72 52.7383 42.761L62.6243 44.8631C63.0345 44.945 63.3079 44.4672 63.0345 44.1533L59.2879 40.0037C59.1922 39.8945 59.2879 39.7443 59.4247 39.7716L64.8941 40.9319C65.3043 41.0138 65.5778 40.536 65.3043 40.2221L58.5223 32.7282C58.3718 32.5644 58.3718 32.3187 58.5223 32.1549ZM49.1832 38.1473L46.5715 46.1871C46.5306 46.3236 46.3391 46.3236 46.298 46.1871L43.6865 38.1473C43.577 37.7924 43.2215 37.5876 42.8524 37.6695L34.5936 39.4304C34.4568 39.4577 34.3611 39.2939 34.4568 39.1983L40.1177 32.9193C40.3638 32.6463 40.3638 32.2368 40.1177 31.9638L34.4568 25.6848C34.3611 25.5756 34.4568 25.4255 34.5936 25.4528L42.8661 27.2136C43.2215 27.2955 43.577 27.0771 43.7001 26.7359L46.3118 18.696C46.3528 18.5595 46.5442 18.5595 46.5853 18.696L49.1969 26.7359C49.3063 27.0908 49.6618 27.2955 50.0309 27.2136L58.3034 25.4528C58.4401 25.4255 58.5359 25.5893 58.4401 25.6848L52.7794 31.9638C52.5332 32.2368 52.5332 32.6463 52.7794 32.9193L58.4401 39.1983C58.5359 39.3075 58.4401 39.4577 58.3034 39.4304L50.0309 37.6695C49.6481 37.5876 49.2925 37.7924 49.1832 38.1473Z" fill="white"/>
<defs>
<filter id="filter0_d_10_56" x="0.440281" y="0" width="294.119" height="72.1194" filterUnits="userSpaceOnUse" color-interpolation-filters="sRGB">
<feFlood flood-opacity="0" result="BackgroundImageFix"/>
<feColorMatrix in="SourceAlpha" type="matrix" values="0 0 0 0 0 0 0 0 0 0 0 0 0 0 0 0 0 0 127 0" result="hardAlpha"/>
<feOffset dy="3.55972"/>
<feGaussianBlur stdDeviation="1.77986"/>
<feComposite in2="hardAlpha" operator="out"/>
<feColorMatrix type="matrix" values="0 0 0 0 0 0 0 0 0 0 0 0 0 0 0 0 0 0 0.15 0"/>
<feBlend mode="normal" in2="BackgroundImageFix" result="effect1_dropShadow_10_56"/>
<feBlend mode="normal" in="SourceGraphic" in2="effect1_dropShadow_10_56" result="shape"/>
</filter>
<linearGradient id="paint0_linear_10_56" x1="-41.92" y1="32.5" x2="329.745" y2="32.5" gradientUnits="userSpaceOnUse">
<stop stop-color="#737373"/>
<stop offset="1" stop-color="#F7F7F7"/>
</linearGradient>
</defs>
</svg>
