<svg width="284" height="68" viewBox="0 0 284 68" fill="none" xmlns="http://www.w3.org/2000/svg">
<g filter="url(#filter0_d_10_47)">
<rect x="4" width="276" height="61" rx="10.0026" fill="url(#paint0_linear_10_47)" shape-rendering="crispEdges"/>
</g>
<path d="M71.9 27V16.5H78.29V17.55H72.95V20.85H77.3675V21.9H72.95V25.95H78.29V27H71.9ZM79.492 27L83.3395 21.72L79.537 16.5H80.8345L83.9845 20.835L87.142 16.5H88.4395L84.6445 21.72L88.4845 27H87.1795L83.9845 22.62L80.8045 27H79.492ZM90.1227 27V16.5H93.4827C94.0427 16.5 94.5477 16.6375 94.9977 16.9125C95.4477 17.1825 95.8052 17.55 96.0702 18.015C96.3402 18.475 96.4752 18.9925 96.4752 19.5675C96.4752 20.1475 96.3377 20.67 96.0627 21.135C95.7927 21.6 95.4302 21.9675 94.9752 22.2375C94.5252 22.5075 94.0277 22.6425 93.4827 22.6425H91.1727V27H90.1227ZM91.1727 21.5925H93.4002C93.7702 21.5925 94.1077 21.5025 94.4127 21.3225C94.7227 21.1375 94.9677 20.89 95.1477 20.58C95.3327 20.265 95.4252 19.91 95.4252 19.515C95.4252 19.12 95.3327 18.7675 95.1477 18.4575C94.9677 18.1425 94.7227 17.895 94.4127 17.715C94.1077 17.53 93.7702 17.4375 93.4002 17.4375H91.1727V21.5925ZM98.0035 27V16.5H99.0535V25.95H103.876V27H98.0035ZM109.588 27.195C108.878 27.195 108.21 27.055 107.585 26.775C106.96 26.49 106.41 26.0975 105.935 25.5975C105.46 25.0975 105.088 24.52 104.818 23.865C104.548 23.205 104.413 22.5 104.413 21.75C104.413 21 104.548 20.2975 104.818 19.6425C105.088 18.9825 105.46 18.4025 105.935 17.9025C106.41 17.4025 106.96 17.0125 107.585 16.7325C108.21 16.4475 108.878 16.305 109.588 16.305C110.303 16.305 110.973 16.4475 111.598 16.7325C112.223 17.0125 112.773 17.4025 113.248 17.9025C113.723 18.4025 114.093 18.9825 114.358 19.6425C114.628 20.2975 114.763 21 114.763 21.75C114.763 22.5 114.628 23.205 114.358 23.865C114.093 24.52 113.723 25.0975 113.248 25.5975C112.773 26.0975 112.223 26.49 111.598 26.775C110.973 27.055 110.303 27.195 109.588 27.195ZM109.588 26.145C110.163 26.145 110.698 26.03 111.193 25.8C111.693 25.565 112.13 25.245 112.505 24.84C112.885 24.435 113.18 23.9675 113.39 23.4375C113.605 22.9075 113.713 22.345 113.713 21.75C113.713 21.15 113.605 20.585 113.39 20.055C113.175 19.52 112.878 19.0525 112.498 18.6525C112.123 18.2475 111.685 17.93 111.185 17.7C110.69 17.47 110.158 17.355 109.588 17.355C109.013 17.355 108.475 17.4725 107.975 17.7075C107.48 17.9375 107.043 18.255 106.663 18.66C106.288 19.065 105.993 19.5325 105.778 20.0625C105.568 20.5925 105.463 21.155 105.463 21.75C105.463 22.355 105.57 22.9225 105.785 23.4525C106 23.9825 106.295 24.45 106.67 24.855C107.05 25.26 107.488 25.5775 107.983 25.8075C108.483 26.0325 109.018 26.145 109.588 26.145ZM116.285 27V16.5H119.847C120.407 16.5 120.912 16.6375 121.362 16.9125C121.812 17.1825 122.17 17.55 122.435 18.015C122.7 18.475 122.832 18.9925 122.832 19.5675C122.832 20.0825 122.727 20.55 122.517 20.97C122.307 21.39 122.02 21.7375 121.655 22.0125C121.295 22.2875 120.887 22.47 120.432 22.56L122.997 27H121.782L119.255 22.6425H117.335V27H116.285ZM117.335 21.5925H119.757C120.127 21.5925 120.465 21.5025 120.77 21.3225C121.08 21.1375 121.325 20.89 121.505 20.58C121.69 20.265 121.782 19.91 121.782 19.515C121.782 19.12 121.69 18.7675 121.505 18.4575C121.325 18.1425 121.08 17.895 120.77 17.715C120.465 17.53 120.127 17.4375 119.757 17.4375H117.335V21.5925ZM124.854 27V16.5H131.244V17.55H125.904V20.85H130.322V21.9H125.904V25.95H131.244V27H124.854ZM140.017 16.5H141.322L145.147 27H144.03L143.212 24.75H138.135L137.317 27H136.2L140.017 16.5ZM138.517 23.7H142.822L140.67 17.79L138.517 23.7ZM155.114 27.195C154.404 27.195 153.737 27.055 153.112 26.775C152.487 26.49 151.937 26.1 151.462 25.605C150.992 25.105 150.622 24.525 150.352 23.865C150.087 23.205 149.954 22.5 149.954 21.75C149.954 21 150.087 20.295 150.352 19.635C150.622 18.975 150.992 18.3975 151.462 17.9025C151.937 17.4025 152.487 17.0125 153.112 16.7325C153.737 16.4475 154.404 16.305 155.114 16.305C155.964 16.305 156.747 16.5025 157.462 16.8975C158.177 17.2925 158.769 17.8175 159.239 18.4725L158.309 18.975C157.939 18.48 157.469 18.0875 156.899 17.7975C156.334 17.5025 155.739 17.355 155.114 17.355C154.539 17.355 154.002 17.4725 153.502 17.7075C153.007 17.9375 152.572 18.255 152.197 18.66C151.822 19.065 151.529 19.5325 151.319 20.0625C151.109 20.5925 151.004 21.155 151.004 21.75C151.004 22.355 151.109 22.9225 151.319 23.4525C151.534 23.9825 151.829 24.45 152.204 24.855C152.584 25.26 153.022 25.5775 153.517 25.8075C154.017 26.0325 154.549 26.145 155.114 26.145C155.764 26.145 156.367 25.9975 156.922 25.7025C157.482 25.4025 157.944 25.0125 158.309 24.5325L159.239 25.035C158.769 25.69 158.177 26.215 157.462 26.61C156.747 27 155.964 27.195 155.114 27.195ZM161.012 27V16.5H162.062V27H161.012ZM164.083 27V16.5H167.555C168.28 16.5 168.96 16.6375 169.595 16.9125C170.23 17.1825 170.788 17.56 171.268 18.045C171.748 18.525 172.123 19.0825 172.393 19.7175C172.668 20.3475 172.805 21.025 172.805 21.75C172.805 22.475 172.668 23.155 172.393 23.79C172.123 24.42 171.748 24.9775 171.268 25.4625C170.788 25.9425 170.23 26.32 169.595 26.595C168.96 26.865 168.28 27 167.555 27H164.083ZM165.133 25.95H167.555C168.135 25.95 168.678 25.8425 169.183 25.6275C169.693 25.4075 170.14 25.105 170.525 24.72C170.91 24.335 171.21 23.89 171.425 23.385C171.645 22.875 171.755 22.33 171.755 21.75C171.755 21.17 171.645 20.6275 171.425 20.1225C171.21 19.6125 170.908 19.165 170.518 18.78C170.133 18.395 169.688 18.095 169.183 17.88C168.678 17.66 168.135 17.55 167.555 17.55H165.133V25.95ZM177.078 16.5H178.383L182.208 27H181.09L180.273 24.75H175.195L174.378 27H173.26L177.078 16.5ZM175.578 23.7H179.883L177.73 17.79L175.578 23.7ZM183.609 27V16.5H187.081C187.806 16.5 188.486 16.6375 189.121 16.9125C189.756 17.1825 190.314 17.56 190.794 18.045C191.274 18.525 191.649 19.0825 191.919 19.7175C192.194 20.3475 192.331 21.025 192.331 21.75C192.331 22.475 192.194 23.155 191.919 23.79C191.649 24.42 191.274 24.9775 190.794 25.4625C190.314 25.9425 189.756 26.32 189.121 26.595C188.486 26.865 187.806 27 187.081 27H183.609ZM184.659 25.95H187.081C187.661 25.95 188.204 25.8425 188.709 25.6275C189.219 25.4075 189.666 25.105 190.051 24.72C190.436 24.335 190.736 23.89 190.951 23.385C191.171 22.875 191.281 22.33 191.281 21.75C191.281 21.17 191.171 20.6275 190.951 20.1225C190.736 19.6125 190.434 19.165 190.044 18.78C189.659 18.395 189.214 18.095 188.709 17.88C188.204 17.66 187.661 17.55 187.081 17.55H184.659V25.95ZM193.716 27V16.5H200.106V17.55H194.766V20.85H199.184V21.9H194.766V25.95H200.106V27H193.716ZM210.222 27.195C209.512 27.195 208.844 27.055 208.219 26.775C207.594 26.49 207.044 26.1 206.569 25.605C206.099 25.105 205.729 24.525 205.459 23.865C205.194 23.205 205.062 22.5 205.062 21.75C205.062 21 205.194 20.295 205.459 19.635C205.729 18.975 206.099 18.3975 206.569 17.9025C207.044 17.4025 207.594 17.0125 208.219 16.7325C208.844 16.4475 209.512 16.305 210.222 16.305C211.072 16.305 211.854 16.5025 212.569 16.8975C213.284 17.2925 213.877 17.8175 214.347 18.4725L213.417 18.975C213.047 18.48 212.577 18.0875 212.007 17.7975C211.442 17.5025 210.847 17.355 210.222 17.355C209.647 17.355 209.109 17.4725 208.609 17.7075C208.114 17.9375 207.679 18.255 207.304 18.66C206.929 19.065 206.637 19.5325 206.427 20.0625C206.217 20.5925 206.112 21.155 206.112 21.75C206.112 22.355 206.217 22.9225 206.427 23.4525C206.642 23.9825 206.937 24.45 207.312 24.855C207.692 25.26 208.129 25.5775 208.624 25.8075C209.124 26.0325 209.657 26.145 210.222 26.145C210.872 26.145 211.474 25.9975 212.029 25.7025C212.589 25.4025 213.052 25.0125 213.417 24.5325L214.347 25.035C213.877 25.69 213.284 26.215 212.569 26.61C211.854 27 211.072 27.195 210.222 27.195ZM220.74 27.195C220.03 27.195 219.362 27.055 218.737 26.775C218.112 26.49 217.562 26.0975 217.087 25.5975C216.612 25.0975 216.24 24.52 215.97 23.865C215.7 23.205 215.565 22.5 215.565 21.75C215.565 21 215.7 20.2975 215.97 19.6425C216.24 18.9825 216.612 18.4025 217.087 17.9025C217.562 17.4025 218.112 17.0125 218.737 16.7325C219.362 16.4475 220.03 16.305 220.74 16.305C221.455 16.305 222.125 16.4475 222.75 16.7325C223.375 17.0125 223.925 17.4025 224.4 17.9025C224.875 18.4025 225.245 18.9825 225.51 19.6425C225.78 20.2975 225.915 21 225.915 21.75C225.915 22.5 225.78 23.205 225.51 23.865C225.245 24.52 224.875 25.0975 224.4 25.5975C223.925 26.0975 223.375 26.49 222.75 26.775C222.125 27.055 221.455 27.195 220.74 27.195ZM220.74 26.145C221.315 26.145 221.85 26.03 222.345 25.8C222.845 25.565 223.282 25.245 223.657 24.84C224.037 24.435 224.332 23.9675 224.542 23.4375C224.757 22.9075 224.865 22.345 224.865 21.75C224.865 21.15 224.757 20.585 224.542 20.055C224.327 19.52 224.03 19.0525 223.65 18.6525C223.275 18.2475 222.837 17.93 222.337 17.7C221.842 17.47 221.31 17.355 220.74 17.355C220.165 17.355 219.627 17.4725 219.127 17.7075C218.632 17.9375 218.195 18.255 217.815 18.66C217.44 19.065 217.145 19.5325 216.93 20.0625C216.72 20.5925 216.615 21.155 216.615 21.75C216.615 22.355 216.722 22.9225 216.937 23.4525C217.152 23.9825 217.447 24.45 217.822 24.855C218.202 25.26 218.64 25.5775 219.135 25.8075C219.635 26.0325 220.17 26.145 220.74 26.145ZM227.188 27L229.221 16.5H229.986L232.926 24.225L235.851 16.5H236.616L238.656 27H237.583L236.031 18.9675L233.256 26.31H232.581L229.806 18.9675L228.253 27H227.188ZM76.76 44.195C76.05 44.195 75.3825 44.055 74.7575 43.775C74.1325 43.49 73.5825 43.1 73.1075 42.605C72.6375 42.105 72.2675 41.525 71.9975 40.865C71.7325 40.205 71.6 39.5 71.6 38.75C71.6 38 71.7325 37.295 71.9975 36.635C72.2675 35.975 72.6375 35.3975 73.1075 34.9025C73.5825 34.4025 74.1325 34.0125 74.7575 33.7325C75.3825 33.4475 76.05 33.305 76.76 33.305C77.61 33.305 78.3925 33.5025 79.1075 33.8975C79.8225 34.2925 80.415 34.8175 80.885 35.4725L79.955 35.975C79.585 35.48 79.115 35.0875 78.545 34.7975C77.98 34.5025 77.385 34.355 76.76 34.355C76.185 34.355 75.6475 34.4725 75.1475 34.7075C74.6525 34.9375 74.2175 35.255 73.8425 35.66C73.4675 36.065 73.175 36.5325 72.965 37.0625C72.755 37.5925 72.65 38.155 72.65 38.75C72.65 39.355 72.755 39.9225 72.965 40.4525C73.18 40.9825 73.475 41.45 73.85 41.855C74.23 42.26 74.6675 42.5775 75.1625 42.8075C75.6625 43.0325 76.195 43.145 76.76 43.145C77.41 43.145 78.0125 42.9975 78.5675 42.7025C79.1275 42.4025 79.59 42.0125 79.955 41.5325L80.885 42.035C80.415 42.69 79.8225 43.215 79.1075 43.61C78.3925 44 77.61 44.195 76.76 44.195ZM87.2779 44.195C86.5679 44.195 85.9004 44.055 85.2754 43.775C84.6504 43.49 84.1004 43.0975 83.6254 42.5975C83.1504 42.0975 82.7779 41.52 82.5079 40.865C82.2379 40.205 82.1029 39.5 82.1029 38.75C82.1029 38 82.2379 37.2975 82.5079 36.6425C82.7779 35.9825 83.1504 35.4025 83.6254 34.9025C84.1004 34.4025 84.6504 34.0125 85.2754 33.7325C85.9004 33.4475 86.5679 33.305 87.2779 33.305C87.9929 33.305 88.6629 33.4475 89.2879 33.7325C89.9129 34.0125 90.4629 34.4025 90.9379 34.9025C91.4129 35.4025 91.7829 35.9825 92.0479 36.6425C92.3179 37.2975 92.4529 38 92.4529 38.75C92.4529 39.5 92.3179 40.205 92.0479 40.865C91.7829 41.52 91.4129 42.0975 90.9379 42.5975C90.4629 43.0975 89.9129 43.49 89.2879 43.775C88.6629 44.055 87.9929 44.195 87.2779 44.195ZM87.2779 43.145C87.8529 43.145 88.3879 43.03 88.8829 42.8C89.3829 42.565 89.8204 42.245 90.1954 41.84C90.5754 41.435 90.8704 40.9675 91.0804 40.4375C91.2954 39.9075 91.4029 39.345 91.4029 38.75C91.4029 38.15 91.2954 37.585 91.0804 37.055C90.8654 36.52 90.5679 36.0525 90.1879 35.6525C89.8129 35.2475 89.3754 34.93 88.8754 34.7C88.3804 34.47 87.8479 34.355 87.2779 34.355C86.7029 34.355 86.1654 34.4725 85.6654 34.7075C85.1704 34.9375 84.7329 35.255 84.3529 35.66C83.9779 36.065 83.6829 36.5325 83.4679 37.0625C83.2579 37.5925 83.1529 38.155 83.1529 38.75C83.1529 39.355 83.2604 39.9225 83.4754 40.4525C83.6904 40.9825 83.9854 41.45 84.3604 41.855C84.7404 42.26 85.1779 42.5775 85.6729 42.8075C86.1729 43.0325 86.7079 43.145 87.2779 43.145ZM93.9752 44V33.5H95.1152L100.658 42.1025V33.5H101.708V44H100.575L95.0252 35.3975V44H93.9752ZM103.511 44V33.5H109.654V34.55H104.561V37.85H108.934V38.9H104.561V44H103.511ZM115.286 44.195C114.576 44.195 113.908 44.055 113.283 43.775C112.658 43.49 112.108 43.0975 111.633 42.5975C111.158 42.0975 110.786 41.52 110.516 40.865C110.246 40.205 110.111 39.5 110.111 38.75C110.111 38 110.246 37.2975 110.516 36.6425C110.786 35.9825 111.158 35.4025 111.633 34.9025C112.108 34.4025 112.658 34.0125 113.283 33.7325C113.908 33.4475 114.576 33.305 115.286 33.305C116.001 33.305 116.671 33.4475 117.296 33.7325C117.921 34.0125 118.471 34.4025 118.946 34.9025C119.421 35.4025 119.791 35.9825 120.056 36.6425C120.326 37.2975 120.461 38 120.461 38.75C120.461 39.5 120.326 40.205 120.056 40.865C119.791 41.52 119.421 42.0975 118.946 42.5975C118.471 43.0975 117.921 43.49 117.296 43.775C116.671 44.055 116.001 44.195 115.286 44.195ZM115.286 43.145C115.861 43.145 116.396 43.03 116.891 42.8C117.391 42.565 117.828 42.245 118.203 41.84C118.583 41.435 118.878 40.9675 119.088 40.4375C119.303 39.9075 119.411 39.345 119.411 38.75C119.411 38.15 119.303 37.585 119.088 37.055C118.873 36.52 118.576 36.0525 118.196 35.6525C117.821 35.2475 117.383 34.93 116.883 34.7C116.388 34.47 115.856 34.355 115.286 34.355C114.711 34.355 114.173 34.4725 113.673 34.7075C113.178 34.9375 112.741 35.255 112.361 35.66C111.986 36.065 111.691 36.5325 111.476 37.0625C111.266 37.5925 111.161 38.155 111.161 38.75C111.161 39.355 111.268 39.9225 111.483 40.4525C111.698 40.9825 111.993 41.45 112.368 41.855C112.748 42.26 113.186 42.5775 113.681 42.8075C114.181 43.0325 114.716 43.145 115.286 43.145ZM121.983 44V33.5H125.546C126.106 33.5 126.611 33.6375 127.061 33.9125C127.511 34.1825 127.868 34.55 128.133 35.015C128.398 35.475 128.531 35.9925 128.531 36.5675C128.531 37.0825 128.426 37.55 128.216 37.97C128.006 38.39 127.718 38.7375 127.353 39.0125C126.993 39.2875 126.586 39.47 126.131 39.56L128.696 44H127.481L124.953 39.6425H123.033V44H121.983ZM123.033 38.5925H125.456C125.826 38.5925 126.163 38.5025 126.468 38.3225C126.778 38.1375 127.023 37.89 127.203 37.58C127.388 37.265 127.481 36.91 127.481 36.515C127.481 36.12 127.388 35.7675 127.203 35.4575C127.023 35.1425 126.778 34.895 126.468 34.715C126.163 34.53 125.826 34.4375 125.456 34.4375H123.033V38.5925ZM138.143 33.5V34.55H134.543V44H133.493V34.55H129.901V33.5H138.143ZM143.923 44.195C143.213 44.195 142.546 44.055 141.921 43.775C141.296 43.49 140.746 43.0975 140.271 42.5975C139.796 42.0975 139.423 41.52 139.153 40.865C138.883 40.205 138.748 39.5 138.748 38.75C138.748 38 138.883 37.2975 139.153 36.6425C139.423 35.9825 139.796 35.4025 140.271 34.9025C140.746 34.4025 141.296 34.0125 141.921 33.7325C142.546 33.4475 143.213 33.305 143.923 33.305C144.638 33.305 145.308 33.4475 145.933 33.7325C146.558 34.0125 147.108 34.4025 147.583 34.9025C148.058 35.4025 148.428 35.9825 148.693 36.6425C148.963 37.2975 149.098 38 149.098 38.75C149.098 39.5 148.963 40.205 148.693 40.865C148.428 41.52 148.058 42.0975 147.583 42.5975C147.108 43.0975 146.558 43.49 145.933 43.775C145.308 44.055 144.638 44.195 143.923 44.195ZM143.923 43.145C144.498 43.145 145.033 43.03 145.528 42.8C146.028 42.565 146.466 42.245 146.841 41.84C147.221 41.435 147.516 40.9675 147.726 40.4375C147.941 39.9075 148.048 39.345 148.048 38.75C148.048 38.15 147.941 37.585 147.726 37.055C147.511 36.52 147.213 36.0525 146.833 35.6525C146.458 35.2475 146.021 34.93 145.521 34.7C145.026 34.47 144.493 34.355 143.923 34.355C143.348 34.355 142.811 34.4725 142.311 34.7075C141.816 34.9375 141.378 35.255 140.998 35.66C140.623 36.065 140.328 36.5325 140.113 37.0625C139.903 37.5925 139.798 38.155 139.798 38.75C139.798 39.355 139.906 39.9225 140.121 40.4525C140.336 40.9825 140.631 41.45 141.006 41.855C141.386 42.26 141.823 42.5775 142.318 42.8075C142.818 43.0325 143.353 43.145 143.923 43.145Z" fill="white"/>
<path d="M36.7938 46.8531C37.918 46.2095 38.8815 45.2673 39.5813 44.0608L41.5543 40.6248C42.4606 39.0505 44.1469 38.0738 45.9593 38.0738H49.9169C52.6357 38.0738 55.1709 36.6144 56.5244 34.2472C57.1898 33.1096 57.5454 31.7881 57.5454 30.4437C57.5454 27.6168 56.0082 25.1462 53.7139 23.8247C52.5897 23.1812 51.2936 22.802 49.9169 22.802H45.9593C44.1469 22.802 42.4606 21.8367 41.5543 20.251L39.5698 16.8151C38.2162 14.4594 35.681 13 32.9623 13C31.6317 13 30.3125 13.3562 29.1539 14.0227C26.7105 15.4361 25.3454 18.0102 25.3454 20.6531C25.3454 21.9516 25.6781 23.2616 26.3663 24.4567L28.3394 27.8926C29.2456 29.4669 29.2456 31.409 28.3394 32.9831L26.3663 36.4191C25.0127 38.7747 25.0127 41.705 26.3663 44.0608C27.0317 45.2214 27.9953 46.1865 29.1539 46.8531C31.5973 48.278 34.511 48.1745 36.7938 46.8531ZM30.8746 43.8769C30.2436 43.5092 29.7045 42.9805 29.3489 42.3486C28.6032 41.0501 28.6032 39.4412 29.3489 38.1543L35.486 27.4789C36.5414 25.6518 36.5414 23.388 35.486 21.5609L34.4307 19.7223C33.9603 18.895 32.905 18.6192 32.079 19.0903C31.2531 19.5615 30.9778 20.6187 31.4481 21.446L32.5035 23.2846C32.9394 24.043 32.9394 24.9853 32.5035 25.7553C32.1823 26.3068 31.3908 26.3068 31.081 25.7553L29.3374 22.733C28.1788 20.7336 28.8671 18.1595 30.8746 16.9989C31.5055 16.6312 32.2282 16.4359 32.9623 16.4359C34.4536 16.4359 35.8416 17.2403 36.5987 18.5388L42.7474 29.2026C43.8027 31.0297 45.7644 32.1559 47.8636 32.1559H49.9284C50.8576 32.1559 51.6492 31.4434 51.695 30.5126C51.7409 29.5243 50.9494 28.7085 49.9743 28.7085H47.8636C46.9803 28.7085 46.1658 28.2374 45.73 27.4789C45.4087 26.9273 45.8102 26.2378 46.4412 26.2378H49.9169C52.2227 26.2378 54.104 28.1225 54.104 30.4321C54.104 31.1676 53.909 31.8915 53.5419 32.5236C52.7962 33.8221 51.4083 34.6264 49.9169 34.6264H37.6196C35.509 34.6264 33.5588 35.7526 32.5035 37.5797L31.4481 39.4182C30.9778 40.2456 31.2531 41.2913 32.079 41.774C32.905 42.2451 33.9489 41.9693 34.4307 41.142L35.486 39.3033C35.9219 38.545 36.7364 38.0738 37.6196 38.0738C38.2506 38.0738 38.6521 38.7633 38.331 39.3149L36.5873 42.337C35.4401 44.348 32.8706 45.0375 30.8746 43.8769Z" fill="white"/>
<defs>
<filter id="filter0_d_10_47" x="0.656651" y="0" width="282.687" height="67.6867" filterUnits="userSpaceOnUse" color-interpolation-filters="sRGB">
<feFlood flood-opacity="0" result="BackgroundImageFix"/>
<feColorMatrix in="SourceAlpha" type="matrix" values="0 0 0 0 0 0 0 0 0 0 0 0 0 0 0 0 0 0 127 0" result="hardAlpha"/>
<feOffset dy="3.34335"/>
<feGaussianBlur stdDeviation="1.67167"/>
<feComposite in2="hardAlpha" operator="out"/>
<feColorMatrix type="matrix" values="0 0 0 0 0 0 0 0 0 0 0 0 0 0 0 0 0 0 0.15 0"/>
<feBlend mode="normal" in2="BackgroundImageFix" result="effect1_dropShadow_10_47"/>
<feBlend mode="normal" in="SourceGraphic" in2="effect1_dropShadow_10_47" result="shape"/>
</filter>
<linearGradient id="paint0_linear_10_47" x1="-40.16" y1="30.5" x2="317.26" y2="30.5" gradientUnits="userSpaceOnUse">
<stop stop-color="#737373" stop-opacity="0.941176"/>
<stop offset="1" stop-color="#F7F7F7"/>
</linearGradient>
</defs>
</svg>
