<svg width="281" height="77" viewBox="0 0 281 77" fill="none" xmlns="http://www.w3.org/2000/svg">
<g filter="url(#filter0_d_10_52)">
<rect x="4" width="272.318" height="69.2657" rx="11.355" fill="white"/>
<rect x="4.47442" y="0.474422" width="271.37" height="68.3168" rx="10.8806" stroke="#E8E8E8" stroke-width="0.948845"/>
</g>
<path d="M60.6318 33.0947L62.6643 22.5947H63.4293L66.3693 30.3197L69.2943 22.5947H70.0593L72.0993 33.0947H71.0268L69.4743 25.0622L66.6993 32.4047H66.0243L63.2493 25.0622L61.6968 33.0947H60.6318ZM78.3974 33.2897C77.6874 33.2897 77.0199 33.1497 76.3949 32.8697C75.7699 32.5847 75.2199 32.1922 74.7449 31.6922C74.2699 31.1922 73.8974 30.6147 73.6274 29.9597C73.3574 29.2997 73.2224 28.5947 73.2224 27.8447C73.2224 27.0947 73.3574 26.3922 73.6274 25.7372C73.8974 25.0772 74.2699 24.4972 74.7449 23.9972C75.2199 23.4972 75.7699 23.1072 76.3949 22.8272C77.0199 22.5422 77.6874 22.3997 78.3974 22.3997C79.1124 22.3997 79.7824 22.5422 80.4074 22.8272C81.0324 23.1072 81.5824 23.4972 82.0574 23.9972C82.5324 24.4972 82.9024 25.0772 83.1674 25.7372C83.4374 26.3922 83.5724 27.0947 83.5724 27.8447C83.5724 28.5947 83.4374 29.2997 83.1674 29.9597C82.9024 30.6147 82.5324 31.1922 82.0574 31.6922C81.5824 32.1922 81.0324 32.5847 80.4074 32.8697C79.7824 33.1497 79.1124 33.2897 78.3974 33.2897ZM78.3974 32.2397C78.9724 32.2397 79.5074 32.1247 80.0024 31.8947C80.5024 31.6597 80.9399 31.3397 81.3149 30.9347C81.6949 30.5297 81.9899 30.0622 82.1999 29.5322C82.4149 29.0022 82.5224 28.4397 82.5224 27.8447C82.5224 27.2447 82.4149 26.6797 82.1999 26.1497C81.9849 25.6147 81.6874 25.1472 81.3074 24.7472C80.9324 24.3422 80.4949 24.0247 79.9949 23.7947C79.4999 23.5647 78.9674 23.4497 78.3974 23.4497C77.8224 23.4497 77.2849 23.5672 76.7849 23.8022C76.2899 24.0322 75.8524 24.3497 75.4724 24.7547C75.0974 25.1597 74.8024 25.6272 74.5874 26.1572C74.3774 26.6872 74.2724 27.2497 74.2724 27.8447C74.2724 28.4497 74.3799 29.0172 74.5949 29.5472C74.8099 30.0772 75.1049 30.5447 75.4799 30.9497C75.8599 31.3547 76.2974 31.6722 76.7924 31.9022C77.2924 32.1272 77.8274 32.2397 78.3974 32.2397ZM85.0946 33.0947V22.5947H88.6421C89.1521 22.5947 89.6146 22.6997 90.0296 22.9097C90.4496 23.1147 90.7821 23.4172 91.0271 23.8172C91.2771 24.2122 91.4021 24.6922 91.4021 25.2572C91.4021 25.5772 91.3446 25.8822 91.2296 26.1722C91.1146 26.4622 90.9646 26.7097 90.7796 26.9147C90.5946 27.1147 90.3946 27.2447 90.1796 27.3047C90.4896 27.3847 90.7571 27.5247 90.9821 27.7247C91.2071 27.9197 91.3921 28.1522 91.5371 28.4222C91.6821 28.6872 91.7871 28.9672 91.8521 29.2622C91.9221 29.5572 91.9571 29.8472 91.9571 30.1322C91.9571 30.7222 91.8271 31.2397 91.5671 31.6847C91.3121 32.1297 90.9696 32.4772 90.5396 32.7272C90.1096 32.9722 89.6321 33.0947 89.1071 33.0947H85.0946ZM86.1446 32.1572H89.0246C89.3896 32.1572 89.7196 32.0622 90.0146 31.8722C90.3146 31.6822 90.5521 31.4222 90.7271 31.0922C90.9071 30.7622 90.9971 30.3897 90.9971 29.9747C90.9971 29.6047 90.9071 29.2572 90.7271 28.9322C90.5521 28.6022 90.3146 28.3372 90.0146 28.1372C89.7196 27.9322 89.3896 27.8297 89.0246 27.8297H86.1446V32.1572ZM86.1446 26.9072H88.5521C89.0471 26.9072 89.4696 26.7647 89.8196 26.4797C90.1746 26.1897 90.3521 25.7797 90.3521 25.2497C90.3521 24.6697 90.1746 24.2397 89.8196 23.9597C89.4696 23.6747 89.0471 23.5322 88.5521 23.5322H86.1446V26.9072ZM93.5521 33.0947V22.5947H94.6021V33.0947H93.5521ZM96.623 33.0947V22.5947H97.673V32.0447H102.495V33.0947H96.623ZM104.377 33.0947V22.5947H105.427V33.0947H104.377ZM107.448 33.0947V22.5947H110.921C111.646 22.5947 112.326 22.7322 112.961 23.0072C113.596 23.2772 114.153 23.6547 114.633 24.1397C115.113 24.6197 115.488 25.1772 115.758 25.8122C116.033 26.4422 116.171 27.1197 116.171 27.8447C116.171 28.5697 116.033 29.2497 115.758 29.8847C115.488 30.5147 115.113 31.0722 114.633 31.5572C114.153 32.0372 113.596 32.4147 112.961 32.6897C112.326 32.9597 111.646 33.0947 110.921 33.0947H107.448ZM108.498 32.0447H110.921C111.501 32.0447 112.043 31.9372 112.548 31.7222C113.058 31.5022 113.506 31.1997 113.891 30.8147C114.276 30.4297 114.576 29.9847 114.791 29.4797C115.011 28.9697 115.121 28.4247 115.121 27.8447C115.121 27.2647 115.011 26.7222 114.791 26.2172C114.576 25.7072 114.273 25.2597 113.883 24.8747C113.498 24.4897 113.053 24.1897 112.548 23.9747C112.043 23.7547 111.501 23.6447 110.921 23.6447H108.498V32.0447ZM120.443 22.5947H121.748L125.573 33.0947H124.456L123.638 30.8447H118.561L117.743 33.0947H116.626L120.443 22.5947ZM118.943 29.7947H123.248L121.096 23.8847L118.943 29.7947ZM126.975 33.0947V22.5947H130.447C131.172 22.5947 131.852 22.7322 132.487 23.0072C133.122 23.2772 133.68 23.6547 134.16 24.1397C134.64 24.6197 135.015 25.1772 135.285 25.8122C135.56 26.4422 135.697 27.1197 135.697 27.8447C135.697 28.5697 135.56 29.2497 135.285 29.8847C135.015 30.5147 134.64 31.0722 134.16 31.5572C133.68 32.0372 133.122 32.4147 132.487 32.6897C131.852 32.9597 131.172 33.0947 130.447 33.0947H126.975ZM128.025 32.0447H130.447C131.027 32.0447 131.57 31.9372 132.075 31.7222C132.585 31.5022 133.032 31.1997 133.417 30.8147C133.802 30.4297 134.102 29.9847 134.317 29.4797C134.537 28.9697 134.647 28.4247 134.647 27.8447C134.647 27.2647 134.537 26.7222 134.317 26.2172C134.102 25.7072 133.8 25.2597 133.41 24.8747C133.025 24.4897 132.58 24.1897 132.075 23.9747C131.57 23.7547 131.027 23.6447 130.447 23.6447H128.025V32.0447ZM137.082 33.0947V22.5947H143.472V23.6447H138.132V26.9447H142.549V27.9947H138.132V32.0447H143.472V33.0947H137.082ZM148.952 33.0947V22.5947H150.002V33.0947H148.952ZM152.023 33.0947V22.5947H153.163L158.706 31.1972V22.5947H159.756V33.0947H158.623L153.073 24.4922V33.0947H152.023ZM169.502 22.5947V23.6447H165.902V33.0947H164.852V23.6447H161.259V22.5947H169.502ZM171.008 33.0947V22.5947H177.398V23.6447H172.058V26.9447H176.475V27.9947H172.058V32.0447H177.398V33.0947H171.008ZM179.152 33.0947V22.5947H180.202V32.0447H185.025V33.0947H179.152ZM186.907 33.0947V22.5947H187.957V33.0947H186.907ZM194.845 33.2897C194.125 33.2897 193.45 33.1497 192.82 32.8697C192.195 32.5847 191.647 32.1922 191.177 31.6922C190.707 31.1872 190.34 30.6072 190.075 29.9522C189.81 29.2922 189.677 28.5872 189.677 27.8372C189.677 27.0722 189.815 26.3597 190.09 25.6997C190.365 25.0397 190.742 24.4647 191.222 23.9747C191.702 23.4797 192.252 23.0947 192.872 22.8197C193.497 22.5447 194.16 22.4072 194.86 22.4072C195.665 22.4072 196.425 22.5947 197.14 22.9697C197.86 23.3447 198.47 23.8772 198.97 24.5672L198.032 25.0772C197.632 24.5522 197.15 24.1497 196.585 23.8697C196.025 23.5897 195.447 23.4497 194.852 23.4497C194.287 23.4497 193.755 23.5647 193.255 23.7947C192.76 24.0197 192.322 24.3347 191.942 24.7397C191.562 25.1447 191.265 25.6122 191.05 26.1422C190.835 26.6722 190.727 27.2422 190.727 27.8522C190.727 28.4572 190.835 29.0247 191.05 29.5547C191.265 30.0847 191.56 30.5522 191.935 30.9572C192.315 31.3572 192.755 31.6722 193.255 31.9022C193.755 32.1272 194.29 32.2397 194.86 32.2397C195.33 32.2397 195.775 32.1597 196.195 31.9997C196.62 31.8347 197.007 31.6047 197.357 31.3097C197.707 31.0147 198.002 30.6697 198.242 30.2747C198.487 29.8797 198.665 29.4497 198.775 28.9847H195.94V28.0322H199.997C199.982 28.7572 199.837 29.4372 199.562 30.0722C199.287 30.7072 198.912 31.2672 198.437 31.7522C197.967 32.2322 197.425 32.6097 196.81 32.8847C196.2 33.1547 195.545 33.2897 194.845 33.2897ZM201.52 33.0947V22.5947H207.91V23.6447H202.57V26.9447H206.988V27.9947H202.57V32.0447H207.91V33.0947H201.52ZM209.665 33.0947V22.5947H210.805L216.347 31.1972V22.5947H217.397V33.0947H216.265L210.715 24.4922V33.0947H209.665ZM227.144 22.5947V23.6447H223.544V33.0947H222.494V23.6447H218.901V22.5947H227.144ZM228.649 33.0947V22.5947H235.039V23.6447H229.699V26.9447H234.117V27.9947H229.699V32.0447H235.039V33.0947H228.649ZM60.6318 50.0947V39.5947H67.0218V40.6447H61.6818V43.9447H66.0993V44.9947H61.6818V49.0447H67.0218V50.0947H60.6318ZM72.2773 50.0947V39.5947H78.6673V40.6447H73.3273V43.9447H77.7448V44.9947H73.3273V49.0447H78.6673V50.0947H72.2773ZM85.0328 50.2897C84.3228 50.2897 83.6553 50.1497 83.0303 49.8697C82.4053 49.5847 81.8553 49.1947 81.3803 48.6997C80.9103 48.1997 80.5403 47.6197 80.2703 46.9597C80.0053 46.2997 79.8728 45.5947 79.8728 44.8447C79.8728 44.0947 80.0053 43.3897 80.2703 42.7297C80.5403 42.0697 80.9103 41.4922 81.3803 40.9972C81.8553 40.4972 82.4053 40.1072 83.0303 39.8272C83.6553 39.5422 84.3228 39.3997 85.0328 39.3997C85.8828 39.3997 86.6653 39.5972 87.3803 39.9922C88.0953 40.3872 88.6878 40.9122 89.1578 41.5672L88.2278 42.0697C87.8578 41.5747 87.3878 41.1822 86.8178 40.8922C86.2528 40.5972 85.6578 40.4497 85.0328 40.4497C84.4578 40.4497 83.9203 40.5672 83.4203 40.8022C82.9253 41.0322 82.4903 41.3497 82.1153 41.7547C81.7403 42.1597 81.4478 42.6272 81.2378 43.1572C81.0278 43.6872 80.9228 44.2497 80.9228 44.8447C80.9228 45.4497 81.0278 46.0172 81.2378 46.5472C81.4528 47.0772 81.7478 47.5447 82.1228 47.9497C82.5028 48.3547 82.9403 48.6722 83.4353 48.9022C83.9353 49.1272 84.4678 49.2397 85.0328 49.2397C85.6828 49.2397 86.2853 49.0922 86.8403 48.7972C87.4003 48.4972 87.8628 48.1072 88.2278 47.6272L89.1578 48.1297C88.6878 48.7847 88.0953 49.3097 87.3803 49.7047C86.6653 50.0947 85.8828 50.2897 85.0328 50.2897ZM95.5507 50.2897C94.8407 50.2897 94.1732 50.1497 93.5482 49.8697C92.9232 49.5847 92.3732 49.1922 91.8982 48.6922C91.4232 48.1922 91.0507 47.6147 90.7807 46.9597C90.5107 46.2997 90.3757 45.5947 90.3757 44.8447C90.3757 44.0947 90.5107 43.3922 90.7807 42.7372C91.0507 42.0772 91.4232 41.4972 91.8982 40.9972C92.3732 40.4972 92.9232 40.1072 93.5482 39.8272C94.1732 39.5422 94.8407 39.3997 95.5507 39.3997C96.2657 39.3997 96.9357 39.5422 97.5607 39.8272C98.1857 40.1072 98.7357 40.4972 99.2107 40.9972C99.6857 41.4972 100.056 42.0772 100.321 42.7372C100.591 43.3922 100.726 44.0947 100.726 44.8447C100.726 45.5947 100.591 46.2997 100.321 46.9597C100.056 47.6147 99.6857 48.1922 99.2107 48.6922C98.7357 49.1922 98.1857 49.5847 97.5607 49.8697C96.9357 50.1497 96.2657 50.2897 95.5507 50.2897ZM95.5507 49.2397C96.1257 49.2397 96.6607 49.1247 97.1557 48.8947C97.6557 48.6597 98.0932 48.3397 98.4682 47.9347C98.8482 47.5297 99.1432 47.0622 99.3532 46.5322C99.5682 46.0022 99.6757 45.4397 99.6757 44.8447C99.6757 44.2447 99.5682 43.6797 99.3532 43.1497C99.1382 42.6147 98.8407 42.1472 98.4607 41.7472C98.0857 41.3422 97.6482 41.0247 97.1482 40.7947C96.6532 40.5647 96.1207 40.4497 95.5507 40.4497C94.9757 40.4497 94.4382 40.5672 93.9382 40.8022C93.4432 41.0322 93.0057 41.3497 92.6257 41.7547C92.2507 42.1597 91.9557 42.6272 91.7407 43.1572C91.5307 43.6872 91.4257 44.2497 91.4257 44.8447C91.4257 45.4497 91.5332 46.0172 91.7482 46.5472C91.9632 47.0772 92.2582 47.5447 92.6332 47.9497C93.0132 48.3547 93.4507 48.6722 93.9457 48.9022C94.4457 49.1272 94.9807 49.2397 95.5507 49.2397ZM102.248 50.0947V39.5947H103.298V49.0447H108.12V50.0947H102.248ZM113.832 50.2897C113.122 50.2897 112.454 50.1497 111.829 49.8697C111.204 49.5847 110.654 49.1922 110.179 48.6922C109.704 48.1922 109.332 47.6147 109.062 46.9597C108.792 46.2997 108.657 45.5947 108.657 44.8447C108.657 44.0947 108.792 43.3922 109.062 42.7372C109.332 42.0772 109.704 41.4972 110.179 40.9972C110.654 40.4972 111.204 40.1072 111.829 39.8272C112.454 39.5422 113.122 39.3997 113.832 39.3997C114.547 39.3997 115.217 39.5422 115.842 39.8272C116.467 40.1072 117.017 40.4972 117.492 40.9972C117.967 41.4972 118.337 42.0772 118.602 42.7372C118.872 43.3922 119.007 44.0947 119.007 44.8447C119.007 45.5947 118.872 46.2997 118.602 46.9597C118.337 47.6147 117.967 48.1922 117.492 48.6922C117.017 49.1922 116.467 49.5847 115.842 49.8697C115.217 50.1497 114.547 50.2897 113.832 50.2897ZM113.832 49.2397C114.407 49.2397 114.942 49.1247 115.437 48.8947C115.937 48.6597 116.374 48.3397 116.749 47.9347C117.129 47.5297 117.424 47.0622 117.634 46.5322C117.849 46.0022 117.957 45.4397 117.957 44.8447C117.957 44.2447 117.849 43.6797 117.634 43.1497C117.419 42.6147 117.122 42.1472 116.742 41.7472C116.367 41.3422 115.929 41.0247 115.429 40.7947C114.934 40.5647 114.402 40.4497 113.832 40.4497C113.257 40.4497 112.719 40.5672 112.219 40.8022C111.724 41.0322 111.287 41.3497 110.907 41.7547C110.532 42.1597 110.237 42.6272 110.022 43.1572C109.812 43.6872 109.707 44.2497 109.707 44.8447C109.707 45.4497 109.814 46.0172 110.029 46.5472C110.244 47.0772 110.539 47.5447 110.914 47.9497C111.294 48.3547 111.732 48.6722 112.227 48.9022C112.727 49.1272 113.262 49.2397 113.832 49.2397ZM113.577 38.7697L114.177 36.6097H115.227L114.282 38.7697H113.577ZM125.309 50.2897C124.589 50.2897 123.914 50.1497 123.284 49.8697C122.659 49.5847 122.111 49.1922 121.641 48.6922C121.171 48.1872 120.804 47.6072 120.539 46.9522C120.274 46.2922 120.141 45.5872 120.141 44.8372C120.141 44.0722 120.279 43.3597 120.554 42.6997C120.829 42.0397 121.206 41.4647 121.686 40.9747C122.166 40.4797 122.716 40.0947 123.336 39.8197C123.961 39.5447 124.624 39.4072 125.324 39.4072C126.129 39.4072 126.889 39.5947 127.604 39.9697C128.324 40.3447 128.934 40.8772 129.434 41.5672L128.496 42.0772C128.096 41.5522 127.614 41.1497 127.049 40.8697C126.489 40.5897 125.911 40.4497 125.316 40.4497C124.751 40.4497 124.219 40.5647 123.719 40.7947C123.224 41.0197 122.786 41.3347 122.406 41.7397C122.026 42.1447 121.729 42.6122 121.514 43.1422C121.299 43.6722 121.191 44.2422 121.191 44.8522C121.191 45.4572 121.299 46.0247 121.514 46.5547C121.729 47.0847 122.024 47.5522 122.399 47.9572C122.779 48.3572 123.219 48.6722 123.719 48.9022C124.219 49.1272 124.754 49.2397 125.324 49.2397C125.794 49.2397 126.239 49.1597 126.659 48.9997C127.084 48.8347 127.471 48.6047 127.821 48.3097C128.171 48.0147 128.466 47.6697 128.706 47.2747C128.951 46.8797 129.129 46.4497 129.239 45.9847H126.404V45.0322H130.461C130.446 45.7572 130.301 46.4372 130.026 47.0722C129.751 47.7072 129.376 48.2672 128.901 48.7522C128.431 49.2322 127.889 49.6097 127.274 49.8847C126.664 50.1547 126.009 50.2897 125.309 50.2897ZM132.209 50.0947V39.5947H133.259V50.0947H132.209ZM140.14 50.2897C139.43 50.2897 138.763 50.1497 138.138 49.8697C137.513 49.5847 136.963 49.1947 136.488 48.6997C136.018 48.1997 135.648 47.6197 135.378 46.9597C135.113 46.2997 134.98 45.5947 134.98 44.8447C134.98 44.0947 135.113 43.3897 135.378 42.7297C135.648 42.0697 136.018 41.4922 136.488 40.9972C136.963 40.4972 137.513 40.1072 138.138 39.8272C138.763 39.5422 139.43 39.3997 140.14 39.3997C140.99 39.3997 141.773 39.5972 142.488 39.9922C143.203 40.3872 143.795 40.9122 144.265 41.5672L143.335 42.0697C142.965 41.5747 142.495 41.1822 141.925 40.8922C141.36 40.5972 140.765 40.4497 140.14 40.4497C139.565 40.4497 139.028 40.5672 138.528 40.8022C138.033 41.0322 137.598 41.3497 137.223 41.7547C136.848 42.1597 136.555 42.6272 136.345 43.1572C136.135 43.6872 136.03 44.2497 136.03 44.8447C136.03 45.4497 136.135 46.0172 136.345 46.5472C136.56 47.0772 136.855 47.5447 137.23 47.9497C137.61 48.3547 138.048 48.6722 138.543 48.9022C139.043 49.1272 139.575 49.2397 140.14 49.2397C140.79 49.2397 141.393 49.0922 141.948 48.7972C142.508 48.4972 142.97 48.1072 143.335 47.6272L144.265 48.1297C143.795 48.7847 143.203 49.3097 142.488 49.7047C141.773 50.0947 140.99 50.2897 140.14 50.2897ZM149.227 39.5947H150.532L154.357 50.0947H153.24L152.422 47.8447H147.345L146.527 50.0947H145.41L149.227 39.5947ZM147.727 46.7947H152.032L149.88 40.8847L147.727 46.7947Z" fill="#737373"/>
<path fill-rule="evenodd" clip-rule="evenodd" d="M21.1617 49.2815L18.0817 43.9479C17.9183 43.6678 18.0117 43.306 18.2917 43.1425L24.2183 39.7346C25.9683 38.7309 25.9683 36.1983 24.2183 35.1828L23.39 34.7044C23.0983 34.5409 23.005 34.1791 23.1683 33.899L26.2483 28.5653C26.4117 28.2736 26.7733 28.1802 27.0533 28.3436L27.8817 28.8222C29.6317 29.8375 31.825 28.5653 31.825 26.5463V19.6953C31.825 19.3685 32.0933 19.1001 32.42 19.1001H38.58C38.9067 19.1001 39.175 19.3685 39.175 19.6953V26.5346C39.175 28.5537 41.3683 29.8258 43.1183 28.8105L43.9467 28.3319C44.2267 28.1685 44.5883 28.2736 44.7517 28.5537L47.8433 33.8874C48.0067 34.1675 47.9017 34.5293 47.6217 34.6927L46.7933 35.1712C45.0433 36.1748 45.0433 38.7076 46.7933 39.7229L52.72 43.1425C53.0117 43.306 53.105 43.6678 52.9417 43.9479L49.8617 49.2815C49.6983 49.5733 49.3367 49.6666 49.0567 49.5033L43.13 46.0837C41.38 45.0682 39.1867 46.3404 39.1867 48.3595V49.3165C39.1867 49.6433 38.9183 49.9118 38.5917 49.9118H32.4317C32.105 49.9118 31.8367 49.6433 31.8367 49.3165V48.3595C31.8367 46.3404 29.6433 45.0682 27.8933 46.0837L21.9667 49.5033C21.6867 49.6666 21.325 49.5616 21.1617 49.2815ZM39.98 37.4471C39.98 39.9222 37.9743 41.9287 35.5 41.9287C33.0257 41.9287 31.02 39.9222 31.02 37.4471C31.02 34.9719 33.0257 32.9653 35.5 32.9653C37.9743 32.9653 39.98 34.9719 39.98 37.4471Z" fill="#737373"/>
<defs>
<filter id="filter0_d_10_52" x="0.20462" y="0" width="279.909" height="76.8564" filterUnits="userSpaceOnUse" color-interpolation-filters="sRGB">
<feFlood flood-opacity="0" result="BackgroundImageFix"/>
<feColorMatrix in="SourceAlpha" type="matrix" values="0 0 0 0 0 0 0 0 0 0 0 0 0 0 0 0 0 0 127 0" result="hardAlpha"/>
<feOffset dy="3.79538"/>
<feGaussianBlur stdDeviation="1.89769"/>
<feComposite in2="hardAlpha" operator="out"/>
<feColorMatrix type="matrix" values="0 0 0 0 0 0 0 0 0 0 0 0 0 0 0 0 0 0 0.15 0"/>
<feBlend mode="normal" in2="BackgroundImageFix" result="effect1_dropShadow_10_52"/>
<feBlend mode="normal" in="SourceGraphic" in2="effect1_dropShadow_10_52" result="shape"/>
</filter>
</defs>
</svg>
