<svg width="30" height="30" viewBox="0 0 30 30" fill="none" xmlns="http://www.w3.org/2000/svg">
<rect x="1" y="1" width="28" height="28" rx="14" stroke="white" stroke-width="2"/>
<path d="M13.3877 9.22131L14.1248 8.4842C14.4369 8.17209 14.9416 8.17209 15.2504 8.4842L21.7051 14.9356C22.0172 15.2477 22.0172 15.7524 21.7051 16.0612L15.2504 22.5158C14.9383 22.828 14.4336 22.828 14.1248 22.5158L13.3877 21.7787C13.0723 21.4633 13.0789 20.9487 13.401 20.6399L17.402 16.8281H7.85938C7.41777 16.8281 7.0625 16.4729 7.0625 16.0313V14.9688C7.0625 14.5272 7.41777 14.1719 7.85938 14.1719H17.402L13.401 10.3602C13.0756 10.0514 13.0689 9.53674 13.3877 9.22131Z" fill="white"/>
</svg>
